<svg t="1730188822834" class="icon" viewBox="0 0 1032 1024" version="1.1" xmlns="http://www.w3.org/2000/svg" p-id="5410" id="mx_n_1730188822835" width="32" height="32"><path d="M275.772 298.226l-0.275 27.56-10.76 15.664C160.338 493.447 135.43 550.055 88.962 740.923l-6.5 26.696 2.893 5.208c72.143 129.924 228.722 229.823 381.363 243.308 5.621 0.496 12.787 1.132 14.464 0 2.223-1.503-1.675-11.192 0-19.639 14.094-71.062 23.197-119.803 16.13-161.635v-8.13l46.198-10.353 59.876-0.265-4.107-9.777c-30.578-72.802-33.781-123.361-9.35-147.598 12.523-12.424 22.94-15.473 58.037-16.991 110.38-4.775 184.212-50.814 212.197-132.32 17.637-51.365 11.112-79.002-18.73-79.337-11.998-0.136-18.698-2.081-52.153-15.146-69.55-27.164-115.18-55.276-152.753-94.11-17.573-18.165-28.868-25.786-49.886-33.666-37.098-13.907-99.904-18.916-162.01-12.924l-10.696 1.032-7.314-6.942c-33.9-32.179-81.416-53.248-104.073-46.147-18.468 5.787-26.297 28.021-26.776 76.039z" fill="#F4F3F3" p-id="5411"></path><path d="M477.009 3.71C172.989 30.231-40.049 303.047 9.37 602.565 19.1 661.55 40.335 721.092 70.203 773.15c6.134 10.688 8.519 13.116 8.532 8.68 0.002-0.956 5.063-22.116 11.243-47.02 27.826-112.134 44.63-166.805 64.376-209.432 21.326-46.039 62.814-115.722 106.923-179.586l13.505-19.554 0.085-24.7c0.244-69.832 16.255-90.22 60.635-77.211 22.404 6.566 46.123 20.938 70.496 42.715l8.748 7.816 5.66-0.73c26.987-3.477 79.396-3.651 107.546-0.363 49.607 5.799 81.825 18.65 103.429 41.26 25.965 27.173 42.792 40.662 73.761 59.125 43.868 26.156 117.964 56.297 136.81 55.654 28.23-0.965 35.711 26.56 20.398 75.035-27.041 85.596-110.636 137.465-222.221 137.887-84.666 0.32-88.24 84.249-9.507 223.3 19.27 34.036 74.76 125.982 77.734 128.807 1.425 1.353 42.527-18.043 63.444-29.94 190.74-108.478 291.884-326.698 251.577-542.777C975.367 164.725 735.644-18.853 477.01 3.71" fill="#DC4C4C" p-id="5412"></path><path d="M497.309 826.73c-9.5-91.344-54.805-137.748-74.17-167.526-47.5-71.798-47.5-124.048-47.5-124.048s39.462 65.953 78.74 89.52c39.28 23.567 158.758 25.209 158.758 25.209-24.095 2.251-19.92 4.796-20.094 28.996 0.728 32.565-14.2 82.18 0 111.495 23.93 54.807 113.404 204.525 113.404 204.525s-37.898 13.968-66.972 21.964c-10.806 2.972-20.351 6.831-26.338 6.376-80.824-6.126-113.862-5.223-126.38-6.376-7.32-0.674-6.864 5.128-6.864-5.099 0.839-4.423 1.575-9 2.226-13.708 7.22-52.268 3.962-120.662 15.193-171.327z" fill="#D1D1D1" p-id="5413"></path></svg>