<svg height="1024" node-id="1" sillyvg="true" template-height="1024" template-width="1024" version="1.1" viewBox="0 0 1024 1024" width="1024" xmlns="http://www.w3.org/2000/svg" xmlns:xlink="http://www.w3.org/1999/xlink"><defs node-id="29"></defs><g node-id="135"><g node-id="137"><path d="M 643.20 305.00 L 633.20 305.20 L 623.40 305.70 L 613.80 306.70 L 604.30 308.10 L 595.00 309.90 L 583.30 312.70 L 572.10 316.10 L 561.00 320.10 L 550.30 324.60 L 539.80 329.70 L 529.70 335.30 L 519.90 341.40 L 510.40 347.90 L 501.30 355.00 L 492.60 362.50 L 484.30 370.50 L 476.40 378.90 L 469.00 387.70 L 462.00 396.80 L 455.50 406.30 L 449.40 416.20 L 443.90 426.40 L 439.00 436.90 L 434.50 447.80 L 430.60 458.90 L 427.90 468.00 L 425.70 477.20 L 423.70 486.50 L 422.20 496.10 L 421.10 505.80 L 415.40 500.20 L 409.40 494.90 L 403.20 490.00 L 396.70 485.30 L 389.90 481.00 L 382.90 477.00 L 375.80 473.40 L 368.40 470.20 L 360.70 467.30 L 352.90 464.80 L 344.90 462.80 L 336.80 461.20 L 328.60 460.00 L 320.10 459.20 L 311.50 458.90 L 302.90 459.10 L 294.50 459.70 L 286.30 460.80 L 278.30 462.20 L 270.40 464.10 L 262.60 466.40 L 255.00 469.10 L 247.60 472.20 L 240.40 475.60 L 233.40 479.40 L 224.90 484.60 L 216.90 490.40 L 209.20 496.60 L 202.00 503.30 L 195.20 510.40 L 188.80 518.00 L 183.00 525.90 L 177.60 534.30 L 173.70 541.20 L 170.20 548.40 L 167.00 555.70 L 164.20 563.20 L 161.80 571.00 L 159.80 578.90 L 158.20 586.90 L 157.00 595.10 L 156.30 603.40 L 156.00 612.00 L 154.80 764.10 L 860.90 769.40 L 862.70 528.10 L 862.50 517.60 L 861.90 507.20 L 860.80 497.10 L 859.30 487.10 L 857.30 477.30 L 854.90 467.50 L 852.00 457.90 L 848.70 448.60 L 845.10 439.50 L 841.00 430.50 L 836.60 421.80 L 831.80 413.30 L 826.60 405.00 L 821.10 397.00 L 815.20 389.20 L 809.00 381.70 L 802.50 374.50 L 795.80 367.60 L 788.70 361.00 L 781.20 354.70 L 773.60 348.70 L 765.60 343.10 L 757.50 337.80 L 749.00 332.80 L 740.30 328.20 L 731.50 324.00 L 722.40 320.20 L 713.10 316.80 L 703.60 313.80 L 693.90 311.20 L 684.10 309.10 L 674.20 307.40 L 664.00 306.10 L 653.70 305.30 L 643.20 305.00 Z" fill="#b3b3b3" fill-opacity="0.1" fill-rule="nonzero" group-id="1,3" node-id="37" stroke="none" target-height="464.40002" target-width="707.9" target-x="154.8" target-y="305"/></g><g node-id="138"><path d="M 275.40 290.90 L 271.60 291.20 L 268.10 292.10 L 264.80 293.40 L 261.90 295.20 L 262.40 290.70 L 262.20 287.60 L 260.70 281.90 L 257.80 276.80 L 253.80 272.70 L 248.80 269.70 L 246.00 268.80 L 239.90 267.90 L 233.80 268.70 L 228.40 270.90 L 223.90 274.40 L 220.30 278.90 L 218.00 284.30 L 217.40 287.20 L 217.10 291.80 L 211.30 290.40 L 206.20 290.50 L 203.30 291.00 L 197.90 293.20 L 195.50 294.90 L 191.40 298.90 L 188.40 303.90 L 187.40 306.70 L 186.50 312.80 L 187.20 318.80 L 189.40 324.10 L 191.50 327.30 L 194.10 330.00 L 197.20 332.20 L 199.70 333.60 L 205.20 335.30 L 208.30 335.60 L 275.20 336.00 L 281.20 335.30 L 286.60 333.10 L 289.00 331.40 L 293.10 327.40 L 296.10 322.40 L 297.70 316.70 L 298.00 313.50 L 297.20 307.40 L 294.90 302.10 L 293.20 299.60 L 289.20 295.60 L 284.20 292.70 L 281.40 291.70 L 275.40 290.90 Z" fill="#b3b3b3" fill-opacity="0.3" fill-rule="nonzero" group-id="1,4" node-id="42" stroke="none" target-height="68.100006" target-width="111.5" target-x="186.5" target-y="267.9"/></g><g node-id="139"><path d="M 844.60 241.10 L 840.80 241.40 L 837.30 242.30 L 834.00 243.60 L 831.10 245.40 L 831.50 240.90 L 831.30 237.80 L 829.80 232.10 L 826.90 227.10 L 822.90 223.00 L 817.90 220.00 L 815.10 219.00 L 809.00 218.10 L 802.90 218.90 L 797.50 221.10 L 793.00 224.60 L 789.40 229.10 L 787.10 234.50 L 786.50 237.40 L 786.20 241.90 L 780.40 240.50 L 775.30 240.60 L 772.30 241.10 L 767.00 243.30 L 764.50 245.00 L 760.50 249.00 L 757.50 254.00 L 756.50 256.80 L 755.60 262.90 L 756.30 268.90 L 758.50 274.20 L 760.60 277.30 L 763.20 280.00 L 766.30 282.30 L 768.80 283.70 L 774.30 285.40 L 777.40 285.70 L 844.30 286.20 L 850.30 285.40 L 855.70 283.20 L 858.10 281.60 L 862.20 277.60 L 865.20 272.60 L 866.80 266.90 L 867.10 263.70 L 866.40 257.60 L 865.40 254.90 L 864.10 252.30 L 862.50 249.90 L 858.50 245.80 L 853.40 242.90 L 850.70 241.90 L 844.60 241.10 Z" fill="#b3b3b3" fill-opacity="0.3" fill-rule="nonzero" group-id="1,5" node-id="47" stroke="none" target-height="68.100006" target-width="111.5" target-x="755.6" target-y="218.1"/></g><g node-id="140"><g node-id="141"><path d="M 695.40 696.00 L 693.80 696.20 L 691.50 697.60 L 690.10 700.00 L 689.90 701.50 L 690.10 703.20 L 690.70 704.50 L 691.70 705.70 L 692.90 706.50 L 692.10 804.10 L 697.40 804.10 L 698.20 706.20 L 700.10 704.30 L 700.90 701.60 L 700.70 700.00 L 699.30 697.70 L 696.90 696.30 L 695.40 696.00 Z" fill="#b3b3b3" fill-opacity="0.1" fill-rule="nonzero" group-id="1,6,7" node-id="54" stroke="none" target-height="108.099976" target-width="11" target-x="689.9" target-y="696"/><path d="M 808.50 702.30 L 807.80 699.70 L 806.90 698.50 L 804.50 697.10 L 803.00 696.80 L 801.50 697.00 L 799.00 698.40 L 797.60 700.80 L 797.40 702.30 L 798.20 705.20 L 800.30 707.10 L 799.50 804.90 L 804.80 804.90 L 805.60 707.10 L 807.60 705.20 L 808.50 702.30 Z" fill="#b3b3b3" fill-opacity="0.1" fill-rule="nonzero" group-id="1,6,7" node-id="56" stroke="none" target-height="108.10004" target-width="11.099976" target-x="797.4" target-y="696.8"/></g><g node-id="142"><path d="M 677.20 739.20 L 677.40 714.40 L 815.90 715.40 L 815.70 740.20 Z" fill="#b3b3b3" fill-opacity="0.1" fill-rule="nonzero" group-id="1,6,8" node-id="61" stroke="none" target-height="25.799988" target-width="138.70001" target-x="677.2" target-y="714.4"/></g><g node-id="143"><path d="M 693.10 714.50 L 678.30 739.20 L 677.20 739.20 L 677.40 714.50 Z" fill="#b3b3b3" fill-opacity="0.1" fill-rule="nonzero" group-id="1,6,9" node-id="66" stroke="none" target-height="24.700012" target-width="15.899963" target-x="677.2" target-y="714.5"/></g><g node-id="144"><path d="M 728.10 714.80 L 713.20 739.50 L 694.50 739.40 L 709.00 714.60 Z" fill="#b3b3b3" fill-opacity="0.1" fill-rule="nonzero" group-id="1,6,10" node-id="71" stroke="none" target-height="24.900024" target-width="33.599976" target-x="694.5" target-y="714.6"/></g><g node-id="145"><path d="M 763.00 715.10 L 748.20 739.70 L 729.40 739.50 L 744.00 714.90 Z" fill="#b3b3b3" fill-opacity="0.1" fill-rule="nonzero" group-id="1,6,11" node-id="76" stroke="none" target-height="24.799988" target-width="33.599976" target-x="729.4" target-y="714.9"/></g><g node-id="146"><path d="M 798.00 715.40 L 783.30 740.00 L 764.40 739.80 L 779.10 715.20 Z" fill="#b3b3b3" fill-opacity="0.1" fill-rule="nonzero" group-id="1,6,12" node-id="81" stroke="none" target-height="24.799988" target-width="33.599976" target-x="764.4" target-y="715.2"/></g><g node-id="147"><path d="M 815.80 715.40 L 815.70 740.30 L 799.30 740.10 L 814.00 715.40 Z" fill="#b3b3b3" fill-opacity="0.1" fill-rule="nonzero" group-id="1,6,13" node-id="86" stroke="none" target-height="24.899963" target-width="16.5" target-x="799.3" target-y="715.4"/></g><g node-id="148"><path d="M 676.90 777.50 L 677.10 752.70 L 815.60 753.70 L 815.40 778.50 Z" fill="#b3b3b3" fill-opacity="0.1" fill-rule="nonzero" group-id="1,6,14" node-id="91" stroke="none" target-height="25.799988" target-width="138.69995" target-x="676.9" target-y="752.7"/></g><g node-id="149"><path d="M 692.80 752.70 L 678.00 777.50 L 676.90 777.50 L 677.10 752.70 Z" fill="#b3b3b3" fill-opacity="0.1" fill-rule="nonzero" group-id="1,6,15" node-id="96" stroke="none" target-height="24.799988" target-width="15.899963" target-x="676.9" target-y="752.7"/></g><g node-id="150"><path d="M 727.80 753.00 L 712.90 777.80 L 694.20 777.60 L 708.70 752.90 Z" fill="#b3b3b3" fill-opacity="0.1" fill-rule="nonzero" group-id="1,6,16" node-id="101" stroke="none" target-height="24.899963" target-width="33.599976" target-x="694.2" target-y="752.9"/></g><g node-id="151"><path d="M 762.70 753.30 L 747.90 777.90 L 729.10 777.80 L 743.70 753.20 Z" fill="#b3b3b3" fill-opacity="0.1" fill-rule="nonzero" group-id="1,6,17" node-id="106" stroke="none" target-height="24.700012" target-width="33.600037" target-x="729.1" target-y="753.2"/></g><g node-id="152"><path d="M 797.70 753.60 L 783.10 778.20 L 764.10 778.10 L 778.80 753.50 Z" fill="#b3b3b3" fill-opacity="0.1" fill-rule="nonzero" group-id="1,6,18" node-id="111" stroke="none" target-height="24.700012" target-width="33.600037" target-x="764.1" target-y="753.5"/></g><g node-id="153"><path d="M 815.50 753.80 L 815.40 778.50 L 799.00 778.40 L 813.70 753.80 Z" fill="#b3b3b3" fill-opacity="0.1" fill-rule="nonzero" group-id="1,6,19" node-id="116" stroke="none" target-height="24.700012" target-width="16.5" target-x="799" target-y="753.8"/></g><g node-id="154"><path d="M 815.70 740.30 L 815.80 715.40 L 677.50 714.80 L 677.70 714.60 L 677.50 739.40 L 813.30 740.30 L 677.00 739.70 L 677.30 714.50 L 815.80 715.70 L 815.70 740.30 Z" fill="#b3b3b3" fill-opacity="0.1" fill-rule="nonzero" group-id="1,6,20" node-id="121" stroke="none" target-height="25.799988" target-width="138.79999" target-x="677" target-y="714.5"/></g><path d="M 815.40 778.50 L 815.50 753.60 L 677.40 752.90 L 677.20 777.70 L 813.00 778.60 L 676.60 778.00 L 676.90 753.00 L 815.40 754.20 L 815.40 778.50 Z" fill="#b3b3b3" fill-opacity="0.1" fill-rule="nonzero" group-id="1,6,21" node-id="126" stroke="none" target-height="25.699951" target-width="138.90002" target-x="676.6" target-y="752.9"/></g></g><path d="M 335.20 602.70 L 309.90 602.70 L 309.90 659.50 L 259.00 659.50 L 259.00 602.70 L 163.60 602.70 L 163.60 565.10 L 242.80 432.10 L 309.80 432.10 L 309.80 561.50 L 335.10 561.50 L 335.10 602.70 Z M 259.00 561.50 L 259.20 516.30 L 261.10 477.70 L 259.90 477.70 L 241.60 516.50 L 215.70 561.50 L 259.00 561.50 Z M 352.80 544.70 L 353.10 532.60 L 353.80 521.50 L 355.00 511.30 L 356.60 502.00 L 358.60 493.40 L 361.20 484.50 L 364.20 476.50 L 367.50 469.30 L 371.10 462.80 L 375.00 456.90 L 378.80 452.20 L 382.70 447.90 L 386.80 444.10 L 391.20 440.70 L 395.70 437.70 L 400.40 435.10 L 406.40 432.60 L 412.60 430.60 L 419.10 429.10 L 426.00 428.20 L 433.30 427.90 L 440.60 428.20 L 447.40 429.10 L 454.00 430.60 L 460.20 432.60 L 466.20 435.20 L 470.90 437.80 L 475.50 440.80 L 479.80 444.20 L 484.00 448.10 L 487.90 452.40 L 491.70 457.20 L 495.60 463.00 L 499.30 469.60 L 502.60 476.80 L 505.60 484.80 L 508.20 493.70 L 510.20 502.20 L 511.80 511.60 L 513.00 521.70 L 513.80 532.70 L 514.10 544.70 L 513.80 556.80 L 513.10 567.90 L 511.90 578.20 L 510.20 587.70 L 508.20 596.40 L 505.60 605.40 L 502.60 613.60 L 499.30 621.00 L 495.70 627.70 L 491.70 633.80 L 488.00 638.70 L 484.00 643.10 L 479.80 647.10 L 475.50 650.60 L 471.00 653.80 L 466.20 656.50 L 461.20 658.80 L 456.10 660.70 L 450.80 662.10 L 445.20 663.20 L 439.40 663.90 L 433.30 664.10 L 427.20 663.90 L 421.40 663.20 L 415.90 662.10 L 410.50 660.60 L 405.40 658.70 L 400.40 656.40 L 395.70 653.70 L 391.20 650.60 L 386.90 647.00 L 382.70 643.10 L 378.80 638.60 L 375.00 633.70 L 371.10 627.70 L 367.50 621.00 L 364.20 613.60 L 361.20 605.40 L 358.60 596.40 L 356.60 587.60 L 355.00 578.20 L 353.80 567.90 L 353.10 556.80 L 352.80 544.70 Z M 462.60 544.70 L 462.40 532.30 L 461.10 513.10 L 459.90 504.30 L 458.50 497.20 L 456.90 491.50 L 454.90 485.90 L 452.70 481.50 L 450.50 478.20 L 447.90 475.30 L 445.20 473.10 L 442.50 471.50 L 439.50 470.50 L 436.40 469.90 L 430.00 469.90 L 426.90 470.50 L 424.00 471.50 L 421.20 473.10 L 418.60 475.30 L 416.00 478.20 L 413.80 481.50 L 411.70 485.90 L 409.70 491.50 L 408.10 497.20 L 406.80 504.30 L 405.60 513.10 L 404.30 532.30 L 404.10 544.70 L 404.80 567.80 L 405.60 576.70 L 406.80 585.60 L 408.10 592.90 L 409.70 598.80 L 411.70 604.60 L 413.80 609.10 L 416.00 612.60 L 418.60 615.80 L 421.20 618.10 L 424.00 619.80 L 426.90 620.90 L 430.00 621.60 L 436.40 621.60 L 439.50 620.90 L 442.50 619.80 L 445.20 618.10 L 447.90 615.80 L 450.50 612.60 L 452.70 609.10 L 454.90 604.60 L 456.90 598.80 L 458.50 592.90 L 459.90 585.60 L 461.10 576.70 L 462.40 557.20 L 462.60 544.70 Z M 701.80 602.70 L 676.50 602.70 L 676.50 659.50 L 625.70 659.50 L 625.70 602.70 L 530.30 602.70 L 530.30 565.10 L 609.50 432.10 L 676.50 432.10 L 676.50 561.50 L 701.80 561.50 L 701.80 602.70 Z M 625.60 561.50 L 625.80 516.30 L 627.70 477.70 L 626.50 477.70 L 608.20 516.50 L 582.30 561.50 L 625.60 561.50 Z" fill="#b3b3b3" fill-opacity="0.35" fill-rule="nonzero" group-id="2" node-id="133" stroke="none" target-height="236.19998" target-width="538.19995" target-x="163.6" target-y="427.9"/></svg>