<svg height="1080" node-id="1" sillyvg="true" template-height="1080" template-width="1080" version="1.1" viewBox="0 0 1080 1080" width="1080" xmlns="http://www.w3.org/2000/svg" xmlns:xlink="http://www.w3.org/1999/xlink"><defs node-id="120"><linearGradient gradientUnits="objectBoundingBox" id="linearGradient-1" node-id="5" spreadMethod="pad" x1="1.2094132" x2="-0.25048688" y1="0.49999002" y2="0.49999002"><stop offset="0" stop-color="#c8cacd" stop-opacity="0"/><stop offset="1" stop-color="#b2b5b8"/></linearGradient><linearGradient gradientUnits="objectBoundingBox" id="linearGradient-2" node-id="8" spreadMethod="pad" x1="0.505171" x2="0.49499094" y1="0.096397124" y2="0.9997983"><stop offset="0" stop-color="#f4f5f5"/><stop offset="1" stop-color="#b3b6b9"/></linearGradient><linearGradient gradientUnits="objectBoundingBox" id="linearGradient-3" node-id="11" spreadMethod="pad" x1="0.49820182" x2="0.5032938" y1="0.074633405" y2="0.99833316"><stop offset="0" stop-color="#f3f4f4"/><stop offset="1" stop-color="#b3b6b9"/></linearGradient><linearGradient gradientUnits="objectBoundingBox" id="linearGradient-4" node-id="14" spreadMethod="pad" x1="0.49996713" x2="0.49996713" y1="1.0001063" y2="-0.44159368"><stop offset="0" stop-color="#f8f8f9"/><stop offset="1" stop-color="#e2e3e4"/></linearGradient><linearGradient gradientUnits="objectBoundingBox" id="linearGradient-5" node-id="17" spreadMethod="pad" x1="0.4999504" x2="0.4999504" y1="0.99636805" y2="0.028768025"><stop offset="0" stop-color="#f4f5f5" stop-opacity="0"/><stop offset="1" stop-color="#eeeff0"/></linearGradient><linearGradient gradientUnits="objectBoundingBox" id="linearGradient-6" node-id="20" spreadMethod="pad" x1="0.5000131" x2="0.5000131" y1="0.99704915" y2="0.028549144"><stop offset="0" stop-color="#f4f5f5" stop-opacity="0"/><stop offset="1" stop-color="#eeeff0"/></linearGradient><linearGradient gradientUnits="objectBoundingBox" id="linearGradient-7" node-id="23" spreadMethod="pad" x1="0.49997026" x2="0.49997026" y1="1.0000432" y2="0.0010431694"><stop offset="0.002903294" stop-color="#f4f5f5" stop-opacity="0"/><stop offset="0.9798" stop-color="#f0f1f2"/></linearGradient><linearGradient gradientUnits="objectBoundingBox" id="linearGradient-8" node-id="26" spreadMethod="pad" x1="0.50859344" x2="0.49267495" y1="0.095155135" y2="1.0013546"><stop offset="0" stop-color="#f4f5f5"/><stop offset="1" stop-color="#b3b6b9"/></linearGradient><linearGradient gradientUnits="objectBoundingBox" id="linearGradient-9" node-id="29" spreadMethod="pad" x1="0.4957094" x2="0.50460386" y1="0.07702673" y2="0.9986246"><stop offset="0" stop-color="#f3f4f4"/><stop offset="1" stop-color="#b3b6b9"/></linearGradient><linearGradient gradientUnits="objectBoundingBox" id="linearGradient-10" node-id="32" spreadMethod="pad" x1="0.50754035" x2="0.4915083" y1="0.09948539" y2="1.0046841"><stop offset="0" stop-color="#f4f5f5"/><stop offset="1" stop-color="#b3b6b9"/></linearGradient><linearGradient gradientUnits="objectBoundingBox" id="linearGradient-11" node-id="35" spreadMethod="pad" x1="0.4966974" x2="0.5060919" y1="0.07540803" y2="0.99760765"><stop offset="0" stop-color="#f3f4f4"/><stop offset="1" stop-color="#b3b6b9"/></linearGradient><linearGradient gradientUnits="objectBoundingBox" id="linearGradient-12" node-id="38" spreadMethod="pad" x1="0.5001163" x2="0.5001163" y1="0.00000000000011024178" y2="1.2452999"><stop offset="0" stop-color="#c5c8ca"/><stop offset="1" stop-color="#e0e1e2"/></linearGradient><linearGradient gradientUnits="objectBoundingBox" id="linearGradient-13" node-id="41" spreadMethod="pad" x1="0.49999288" x2="0.49999288" y1="-0.000010810811" y2="0.99998915"><stop offset="0" stop-color="#ccced1"/><stop offset="1" stop-color="#edeeef"/></linearGradient><linearGradient gradientUnits="objectBoundingBox" id="linearGradient-14" node-id="44" spreadMethod="pad" x1="0.49999288" x2="0.49999288" y1="0.000022453223" y2="1.0000224"><stop offset="0" stop-color="#d7d8da"/><stop offset="1" stop-color="#edeeef"/></linearGradient><linearGradient gradientUnits="objectBoundingBox" id="linearGradient-15" node-id="47" spreadMethod="pad" x1="0.5000899" x2="0.5000899" y1="-0.0000244713" y2="0.9988755"><stop offset="0" stop-color="#cbcdd0"/><stop offset="1" stop-color="#f4f5f5"/></linearGradient><linearGradient gradientUnits="objectBoundingBox" id="linearGradient-16" node-id="50" spreadMethod="pad" x1="0.5000899" x2="0.5000899" y1="0.000051178453" y2="1.0000511"><stop offset="0" stop-color="#d7d8da"/><stop offset="1" stop-color="#edeeef"/></linearGradient><linearGradient gradientUnits="objectBoundingBox" id="linearGradient-17" node-id="53" spreadMethod="pad" x1="0.500207" x2="0.500207" y1="-0.00004554974" y2="0.99995446"><stop offset="0" stop-color="#ccced1"/><stop offset="1" stop-color="#edeeef"/></linearGradient><linearGradient gradientUnits="objectBoundingBox" id="linearGradient-18" node-id="56" spreadMethod="pad" x1="0.50027406" x2="0.50027406" y1="0.000044210527" y2="1.0000442"><stop offset="0" stop-color="#d7d8da"/><stop offset="1" stop-color="#edeeef"/></linearGradient><linearGradient gradientUnits="objectBoundingBox" id="linearGradient-19" node-id="59" spreadMethod="pad" x1="0.50004536" x2="0.50004536" y1="-0.0000034571065" y2="0.99999654"><stop offset="0" stop-color="#e4e5e6"/><stop offset="1" stop-color="#afb2b6"/></linearGradient><linearGradient gradientUnits="objectBoundingBox" id="linearGradient-20" node-id="62" spreadMethod="pad" x1="0.50004536" x2="0.50004536" y1="-0.0000030178326" y2="0.99999696"><stop offset="0" stop-color="#eff0f1"/><stop offset="1" stop-color="#bbbdc1"/></linearGradient><linearGradient gradientUnits="objectBoundingBox" id="linearGradient-21" node-id="65" spreadMethod="pad" x1="0.0028281072" x2="0.9993281" y1="0.49992988" y2="0.49992988"><stop offset="0" stop-color="#c4c7c9"/><stop offset="1" stop-color="#e0e1e2"/></linearGradient><linearGradient gradientUnits="objectBoundingBox" id="linearGradient-22" node-id="68" spreadMethod="pad" x1="0.0028281072" x2="0.9993281" y1="0.5000062" y2="0.5000062"><stop offset="0" stop-color="#ffffff"/><stop offset="1" stop-color="#ffffff" stop-opacity="0.09743772"/></linearGradient><linearGradient gradientUnits="objectBoundingBox" id="linearGradient-23" node-id="71" spreadMethod="pad" x1="0.49997607" x2="0.49997607" y1="1.1490283" y2="0.065028265"><stop offset="0" stop-color="#ffffff"/><stop offset="1" stop-color="#cfd1d3"/></linearGradient><linearGradient gradientUnits="objectBoundingBox" id="linearGradient-24" node-id="74" spreadMethod="pad" x1="0.49997607" x2="0.49997607" y1="1.1490717" y2="0.06517174"><stop offset="0" stop-color="#ffffff" stop-opacity="0.09743772"/><stop offset="1" stop-color="#ffffff"/></linearGradient></defs><g node-id="265"><g node-id="266"><g node-id="267"><path d="M 0.00 0.00 L 1080.00 0.00 L 1080.00 1080.00 L 0.00 1080.00 Z" fill="#ffffff" fill-opacity="0" fill-rule="nonzero" group-id="1,2,3" id="矩形" node-id="81" stroke="none" target-height="1080" target-width="1080" target-x="0" target-y="0"/><g node-id="269"><path d="M 688.50 881.70 L 688.20 882.70 L 687.10 883.70 L 684.90 885.00 L 680.90 886.40 L 675.90 887.80 L 659.80 890.60 L 645.60 892.20 L 627.70 893.80 L 608.70 895.00 L 586.90 895.90 L 540.00 896.70 L 493.10 895.90 L 471.30 895.00 L 452.30 893.80 L 434.40 892.20 L 420.20 890.60 L 404.10 887.80 L 399.10 886.40 L 395.10 885.00 L 392.90 883.70 L 391.80 882.70 L 391.50 881.70 L 391.80 880.70 L 392.90 879.70 L 395.10 878.40 L 399.10 877.00 L 411.00 874.30 L 420.20 872.80 L 434.40 871.20 L 452.30 869.60 L 471.30 868.40 L 493.10 867.50 L 540.00 866.70 L 586.90 867.50 L 608.70 868.40 L 627.70 869.60 L 645.60 871.20 L 659.80 872.80 L 675.90 875.60 L 680.90 877.00 L 684.90 878.40 L 687.10 879.70 L 688.20 880.70 L 688.50 881.70 Z" fill="url(#linearGradient-1)" fill-opacity="0.2648" fill-rule="nonzero" group-id="1,2,3,5" id="椭圆形" node-id="82" stroke="none" target-height="30" target-width="297" target-x="391.5" target-y="866.7"/></g><g node-id="270"><g node-id="281"><path d="M 232.10 668.10 L 231.80 669.00 L 231.10 669.90 L 229.70 670.90 L 227.20 671.90 L 223.50 672.80 L 219.40 673.30 L 214.70 673.50 L 209.90 673.30 L 205.90 672.80 L 202.20 671.90 L 199.70 670.90 L 198.20 669.90 L 197.50 669.00 L 197.30 668.10 L 197.50 667.20 L 198.20 666.40 L 199.70 665.40 L 202.20 664.40 L 205.90 663.50 L 209.90 662.90 L 214.70 662.70 L 219.40 662.90 L 223.50 663.50 L 227.20 664.40 L 229.70 665.40 L 231.10 666.40 L 231.80 667.20 L 232.10 668.10 Z" fill="#9da1a6" fill-opacity="0.3733638" fill-rule="nonzero" group-id="1,2,3,6,17" id="椭圆形_1_" node-id="84" stroke="none" target-height="10.799988" target-width="34.800003" target-x="197.3" target-y="662.7"/></g><g node-id="282"><path d="M 199.40 668.10 L 200.20 668.20 L 201.30 667.70 L 203.20 666.30 L 205.70 663.70 L 212.20 655.40 L 222.30 640.20 L 229.80 626.70 L 230.90 624.00 L 231.70 620.70 L 232.10 617.50 L 232.00 614.40 L 231.40 611.20 L 230.40 608.40 L 229.10 605.80 L 227.30 603.50 L 225.20 601.70 L 222.80 600.30 L 220.10 599.50 L 217.50 599.30 L 214.80 599.70 L 212.30 600.60 L 209.90 602.00 L 207.60 603.90 L 205.70 606.10 L 204.00 608.80 L 202.70 612.00 L 200.90 619.50 L 199.20 630.50 L 197.90 643.00 L 197.20 654.90 L 197.30 660.10 L 198.10 666.30 L 198.70 667.60 L 199.40 668.10 Z" fill="url(#linearGradient-2)" fill-opacity="0.35945928" fill-rule="nonzero" group-id="1,2,3,6,18" id="椭圆形_2_" node-id="85" stroke="none" target-height="68.900024" target-width="34.90001" target-x="197.2" target-y="599.3"/></g><path d="M 200.30 668.10 L 201.70 666.60 L 203.20 661.20 L 203.80 656.40 L 204.60 645.30 L 204.70 632.80 L 204.30 620.50 L 202.90 605.60 L 202.40 602.70 L 201.10 598.90 L 199.40 595.60 L 197.30 592.70 L 194.90 590.20 L 192.20 588.30 L 189.30 586.90 L 184.70 586.00 L 179.90 586.50 L 175.50 588.60 L 171.90 591.90 L 170.10 594.60 L 168.60 597.80 L 167.70 601.30 L 167.20 604.90 L 167.30 608.70 L 167.90 612.60 L 170.20 619.50 L 174.40 629.10 L 179.90 640.00 L 185.90 650.70 L 191.70 660.00 L 194.50 663.70 L 198.30 667.60 L 199.50 668.10 L 200.30 668.10 Z" fill="url(#linearGradient-3)" fill-opacity="0.62352" fill-rule="nonzero" group-id="1,2,3,6" id="椭圆形_3_" node-id="86" stroke="none" target-height="82.099976" target-width="37.5" target-x="167.2" target-y="586"/></g><g node-id="271"><path d="M 171.60 245.70 L 168.00 245.40 L 163.50 245.70 L 159.20 245.50 L 155.00 244.80 L 151.00 243.80 L 147.20 242.40 L 140.00 238.60 L 133.80 233.50 L 131.10 230.50 L 126.60 223.80 L 124.80 220.10 L 123.40 216.30 L 122.40 212.30 L 121.70 208.10 L 121.50 203.70 L 121.70 199.30 L 122.40 195.10 L 123.40 191.10 L 124.80 187.30 L 126.50 183.60 L 131.00 177.00 L 136.70 171.40 L 143.40 167.00 L 150.90 163.80 L 154.90 162.80 L 159.10 162.20 L 163.50 162.00 L 171.30 162.60 L 173.90 158.20 L 176.90 154.10 L 180.10 150.30 L 183.80 146.70 L 187.70 143.50 L 191.90 140.70 L 196.30 138.30 L 201.00 136.20 L 205.90 134.50 L 211.00 133.30 L 216.20 132.60 L 221.70 132.30 L 226.40 132.50 L 235.30 134.00 L 239.60 135.20 L 245.10 137.40 L 250.30 140.10 L 255.10 143.30 L 259.70 147.00 L 263.70 151.00 L 267.40 155.60 L 270.60 160.40 L 273.30 165.60 L 275.50 171.10 L 277.60 179.80 L 278.40 189.00 L 312.00 189.00 L 315.90 189.30 L 319.50 190.00 L 323.00 191.20 L 326.30 192.90 L 329.40 194.90 L 332.10 197.30 L 334.50 200.00 L 336.60 202.90 L 338.20 206.20 L 339.50 209.70 L 340.20 213.30 L 340.50 217.20 L 340.20 221.10 L 339.50 224.70 L 338.30 228.20 L 336.60 231.50 L 334.60 234.60 L 332.20 237.30 L 329.50 239.70 L 326.50 241.80 L 323.20 243.40 L 319.70 244.70 L 316.00 245.40 L 312.00 245.70 L 171.60 245.70 Z" fill="url(#linearGradient-4)" fill-opacity="0.56" fill-rule="nonzero" group-id="1,2,3,7" id="形状结合" node-id="87" stroke="none" target-height="113.399994" target-width="219" target-x="121.5" target-y="132.3"/></g><g node-id="272"><path d="M 108.00 799.20 L 117.60 785.60 L 126.80 773.30 L 135.80 762.10 L 144.50 752.10 L 152.90 743.20 L 161.10 735.20 L 169.10 728.10 L 176.80 721.80 L 184.80 716.00 L 192.60 711.10 L 200.20 706.90 L 207.60 703.40 L 214.80 700.70 L 221.90 698.60 L 228.80 697.20 L 235.60 696.30 L 242.40 696.00 L 249.10 696.30 L 255.90 697.10 L 263.00 698.60 L 270.30 700.60 L 277.80 703.30 L 285.60 706.80 L 293.70 711.00 L 302.20 716.00 L 311.00 721.80 L 319.40 728.10 L 328.20 735.20 L 337.30 743.10 L 346.80 752.10 L 356.60 762.10 L 366.90 773.30 L 377.60 785.60 L 388.80 799.20 L 108.00 799.20 Z" fill="url(#linearGradient-5)" fill-opacity="0.8" fill-rule="nonzero" group-id="1,2,3,8" id="路径" node-id="89" stroke="none" target-height="103.20001" target-width="280.8" target-x="108" target-y="696"/><path d="M 274.20 799.20 L 283.20 782.80 L 292.10 767.70 L 300.80 753.90 L 309.40 741.40 L 317.90 730.00 L 326.20 719.60 L 334.40 710.30 L 342.50 702.00 L 350.40 694.50 L 358.30 687.90 L 366.00 682.00 L 373.70 676.90 L 381.20 672.50 L 388.70 668.80 L 396.20 665.70 L 403.60 663.20 L 411.00 661.30 L 418.30 659.90 L 425.80 659.10 L 433.20 658.80 L 441.30 659.10 L 450.40 660.00 L 460.50 661.70 L 471.70 664.20 L 484.30 667.60 L 498.20 672.00 L 513.60 677.60 L 530.60 684.30 L 549.40 692.50 L 570.00 702.10 L 592.60 713.40 L 617.40 726.40 L 644.50 741.40 L 674.00 758.40 L 706.10 777.60 L 741.00 799.20 L 274.20 799.20 Z" fill="url(#linearGradient-6)" fill-opacity="0.8" fill-rule="nonzero" group-id="1,2,3,8" id="路径-2" node-id="90" stroke="none" target-height="140.40002" target-width="466.8" target-x="274.2" target-y="658.8"/><path d="M 972.00 799.20 L 961.50 784.70 L 951.30 771.60 L 941.40 759.70 L 931.90 749.10 L 922.70 739.50 L 913.70 731.00 L 905.10 723.50 L 896.70 716.90 L 888.00 710.70 L 879.50 705.40 L 871.30 700.90 L 863.30 697.30 L 855.50 694.40 L 847.90 692.20 L 840.40 690.60 L 833.10 689.70 L 825.90 689.40 L 818.70 689.70 L 810.70 690.60 L 802.00 692.20 L 792.40 694.50 L 781.80 697.70 L 770.20 701.90 L 757.50 707.00 L 743.70 713.30 L 728.50 720.90 L 711.90 729.80 L 693.90 740.20 L 674.20 752.20 L 652.90 765.90 L 629.80 781.60 L 604.80 799.20 L 972.00 799.20 Z" fill="url(#linearGradient-7)" fill-opacity="0.8" fill-rule="nonzero" group-id="1,2,3,8" id="路径-3" node-id="91" stroke="none" target-height="109.79999" target-width="367.2" target-x="604.8" target-y="689.4"/></g><g node-id="273"><g node-id="283"><path d="M 823.60 595.20 L 822.80 596.50 L 819.70 598.10 L 813.70 599.20 L 810.10 599.40 L 806.40 599.20 L 800.40 598.10 L 798.40 597.30 L 796.70 595.80 L 796.60 595.20 L 797.30 593.80 L 800.40 592.20 L 806.40 591.10 L 810.10 591.00 L 813.70 591.10 L 819.70 592.20 L 822.80 593.80 L 823.60 595.20 Z" fill="#9da1a6" fill-opacity="0.53592" fill-rule="nonzero" group-id="1,2,3,9,19" id="椭圆形_4_" node-id="93" stroke="none" target-height="8.400024" target-width="27" target-x="796.6" target-y="591"/></g><g node-id="284"><path d="M 798.40 595.20 L 799.90 594.80 L 801.30 593.80 L 803.30 592.00 L 808.30 586.10 L 816.00 575.20 L 821.80 565.60 L 823.40 561.30 L 823.60 556.80 L 822.40 552.60 L 820.00 549.10 L 816.70 546.90 L 814.70 546.30 L 812.70 546.10 L 810.70 546.40 L 806.80 548.10 L 805.00 549.50 L 802.10 553.00 L 801.10 555.30 L 799.70 560.40 L 798.40 568.20 L 797.30 577.10 L 796.90 589.40 L 797.50 593.80 L 798.40 595.20 Z" fill="url(#linearGradient-8)" fill-opacity="0.4612" fill-rule="nonzero" group-id="1,2,3,9,20" id="椭圆形_5_" node-id="94" stroke="none" target-height="49.100037" target-width="26.699951" target-x="796.9" target-y="546.1"/></g><path d="M 797.80 595.20 L 799.10 593.80 L 799.70 591.90 L 800.30 588.80 L 801.10 579.90 L 801.10 564.50 L 800.00 551.60 L 798.60 546.60 L 797.30 544.30 L 795.70 542.20 L 793.80 540.40 L 791.70 539.00 L 789.40 538.00 L 787.00 537.40 L 784.60 537.20 L 782.20 537.60 L 779.90 538.40 L 777.80 539.60 L 776.10 541.30 L 774.60 543.30 L 773.50 545.40 L 772.70 547.90 L 772.40 550.50 L 772.40 553.10 L 772.90 555.90 L 775.10 561.70 L 779.20 569.90 L 787.20 583.40 L 792.40 590.80 L 794.50 593.20 L 796.00 594.60 L 797.80 595.20 Z" fill="url(#linearGradient-9)" fill-opacity="0.8" fill-rule="nonzero" group-id="1,2,3,9" id="椭圆形_6_" node-id="95" stroke="none" target-height="58" target-width="28.699951" target-x="772.4" target-y="537.2"/></g><g node-id="274"><g node-id="285"><path d="M 870.70 885.50 L 870.50 886.40 L 869.70 887.30 L 868.30 888.30 L 865.70 889.30 L 861.90 890.20 L 857.80 890.70 L 853.00 890.90 L 848.20 890.70 L 844.10 890.20 L 840.30 889.30 L 837.70 888.30 L 835.60 886.40 L 835.30 885.50 L 835.60 884.60 L 836.30 883.80 L 837.70 882.80 L 840.30 881.80 L 844.10 880.90 L 848.20 880.30 L 853.00 880.10 L 857.80 880.30 L 861.90 880.90 L 865.70 881.80 L 868.30 882.80 L 869.70 883.80 L 870.50 884.60 L 870.70 885.50 Z" fill="#9da1a6" fill-opacity="0.42828768" fill-rule="nonzero" group-id="1,2,3,10,21" id="椭圆形_7_" node-id="97" stroke="none" target-height="10.800049" target-width="35.400024" target-x="835.3" target-y="880.1"/></g><g node-id="286"><path d="M 840.40 886.40 L 842.60 886.10 L 847.10 882.50 L 850.50 878.90 L 857.80 870.10 L 865.40 859.70 L 872.50 849.20 L 878.10 839.80 L 881.50 833.00 L 882.70 829.00 L 883.20 825.10 L 883.10 821.30 L 882.30 817.60 L 881.10 814.20 L 879.30 811.10 L 875.70 807.20 L 871.00 804.50 L 865.80 803.40 L 860.60 803.90 L 857.30 804.90 L 854.20 806.60 L 851.20 808.90 L 848.60 811.60 L 846.40 814.90 L 844.60 818.60 L 842.60 825.90 L 840.70 836.80 L 839.10 849.50 L 838.00 862.40 L 837.70 874.00 L 837.90 879.00 L 839.00 884.70 L 839.70 885.90 L 840.40 886.40 Z" fill="url(#linearGradient-10)" fill-opacity="0.41365027" fill-rule="nonzero" group-id="1,2,3,10,22" id="椭圆形_8_" node-id="98" stroke="none" target-height="83" target-width="45.5" target-x="837.7" target-y="803.4"/></g><path d="M 840.40 886.70 L 841.40 886.20 L 842.30 884.90 L 843.30 882.50 L 844.30 878.50 L 845.20 872.80 L 846.20 859.50 L 846.30 837.00 L 845.50 823.00 L 844.20 812.10 L 843.40 808.70 L 842.20 805.30 L 840.70 802.20 L 836.70 796.70 L 834.30 794.40 L 831.70 792.40 L 828.80 790.80 L 825.90 789.50 L 822.90 788.70 L 819.70 788.30 L 816.60 788.40 L 813.40 788.90 L 810.40 790.00 L 807.60 791.40 L 805.10 793.30 L 802.90 795.40 L 801.00 797.90 L 799.40 800.60 L 797.30 806.70 L 796.80 810.00 L 796.70 813.40 L 797.10 816.90 L 797.80 820.40 L 798.90 823.80 L 803.40 833.90 L 809.90 846.50 L 817.60 859.70 L 825.50 871.90 L 832.80 881.50 L 835.70 884.50 L 837.80 886.10 L 839.30 886.70 L 840.40 886.70 Z" fill="url(#linearGradient-11)" fill-opacity="0.71752" fill-rule="nonzero" group-id="1,2,3,10" id="椭圆形_9_" node-id="99" stroke="none" target-height="98.400024" target-width="49.599976" target-x="796.7" target-y="788.3"/></g></g><g node-id="268"><path d="M 388.10 452.40 L 699.20 452.40 L 699.20 551.40 L 388.10 551.40 Z" fill="url(#linearGradient-12)" fill-opacity="0.8" fill-rule="nonzero" group-id="1,2,4" id="矩形_1_" node-id="101" stroke="none" target-height="99.00003" target-width="311.1" target-x="388.1" target-y="452.4"/><g node-id="275"><path d="M 344.30 512.70 L 426.50 383.40 L 426.50 481.80 L 342.50 672.00 L 342.50 518.40 L 342.90 515.30 L 344.30 512.70 Z" fill="url(#linearGradient-13)" fill-opacity="0.6041667" fill-rule="nonzero" group-id="1,2,4,11" id="矩形_2_" node-id="102" stroke="none" target-height="288.6" target-width="84" target-x="342.5" target-y="383.4"/></g><path d="M 344.30 520.80 L 426.50 391.50 L 426.50 489.90 L 342.50 680.10 L 342.50 526.50 L 342.90 523.40 L 344.30 520.80 Z" fill="url(#linearGradient-14)" fill-opacity="0.8" fill-rule="nonzero" group-id="1,2,4" id="矩形备份-17" node-id="103" stroke="none" target-height="288.59998" target-width="84" target-x="342.5" target-y="391.5"/><g node-id="276"><path d="M 426.50 383.40 L 663.50 383.40 L 663.50 482.70 L 426.50 482.70 Z" fill="url(#linearGradient-15)" fill-opacity="0.6041667" fill-rule="nonzero" group-id="1,2,4,12" id="矩形_3_" node-id="104" stroke="none" target-height="99.30002" target-width="237" target-x="426.5" target-y="383.4"/></g><path d="M 426.50 388.80 L 663.50 388.80 L 663.50 477.90 L 426.50 477.90 Z" fill="url(#linearGradient-16)" fill-opacity="0.8" fill-rule="nonzero" group-id="1,2,4" id="矩形备份-16" node-id="105" stroke="none" target-height="89.100006" target-width="237" target-x="426.5" target-y="388.8"/><g node-id="277"><path d="M 743.00 510.30 L 663.50 383.40 L 663.50 481.80 L 744.80 669.90 L 744.80 516.00 L 744.30 513.10 L 743.00 510.30 Z" fill="url(#linearGradient-17)" fill-opacity="0.6041667" fill-rule="nonzero" group-id="1,2,4,13" id="矩形_4_" node-id="106" stroke="none" target-height="286.50003" target-width="81.29999" target-x="663.5" target-y="383.4"/></g><path d="M 743.00 516.90 L 663.80 391.50 L 663.80 489.90 L 744.80 676.50 L 744.80 522.90 L 744.60 520.80 L 744.00 518.80 L 743.00 516.90 Z" fill="url(#linearGradient-18)" fill-opacity="0.8" fill-rule="nonzero" group-id="1,2,4" id="矩形备份-18" node-id="107" stroke="none" target-height="285" target-width="81" target-x="663.8" target-y="391.5"/><g node-id="278"><g node-id="287"><path d="M 744.80 515.60 L 744.80 728.30 L 744.60 731.40 L 744.00 734.20 L 741.80 739.30 L 739.70 742.30 L 737.10 744.90 L 734.10 747.00 L 731.60 748.30 L 726.20 749.70 L 723.20 749.90 L 364.10 749.90 L 358.30 749.20 L 353.10 747.00 L 350.10 744.90 L 347.50 742.30 L 345.40 739.30 L 343.20 734.20 L 342.50 728.30 L 342.50 515.60 L 507.20 515.60 L 507.90 523.00 L 510.00 529.80 L 512.10 534.10 L 514.70 538.00 L 517.80 541.50 L 521.30 544.60 L 525.20 547.20 L 529.40 549.40 L 536.30 551.50 L 543.80 552.20 L 551.20 551.50 L 558.00 549.40 L 562.30 547.20 L 566.10 544.60 L 569.60 541.50 L 572.60 538.00 L 575.20 534.10 L 577.30 529.80 L 578.80 525.40 L 579.70 520.60 L 580.10 515.60 L 744.80 515.60 Z" fill="url(#linearGradient-19)" fill-opacity="0.8" fill-rule="nonzero" group-id="1,2,4,14,23" id="path-24" node-id="110" stroke="none" target-height="234.30005" target-width="402.3" target-x="342.5" target-y="515.6"/></g><path d="M 744.80 521.00 L 744.80 718.10 L 744.60 721.20 L 744.00 724.00 L 741.80 729.10 L 739.70 732.10 L 737.10 734.70 L 734.10 736.80 L 731.60 738.10 L 726.20 739.50 L 723.20 739.70 L 364.10 739.70 L 358.30 739.00 L 353.10 736.80 L 350.10 734.70 L 347.50 732.10 L 345.40 729.10 L 343.20 724.00 L 342.50 718.10 L 342.50 521.00 L 507.20 521.00 L 507.90 528.40 L 510.00 535.20 L 512.10 539.50 L 514.70 543.40 L 517.80 546.90 L 521.30 550.00 L 525.10 552.60 L 529.30 554.80 L 536.10 556.90 L 543.50 557.60 L 550.90 556.90 L 557.70 554.80 L 561.90 552.60 L 565.80 550.00 L 569.30 546.90 L 572.40 543.40 L 575.00 539.50 L 577.20 535.20 L 579.30 528.40 L 580.10 521.00 L 744.80 521.00 Z" fill="url(#linearGradient-20)" fill-opacity="0.8" fill-rule="nonzero" group-id="1,2,4,14,24" id="路径_1_" node-id="112" stroke="none" target-height="218.70001" target-width="402.3" target-x="342.5" target-y="521"/></g><g node-id="279"><path d="M 493.90 590.00 L 598.60 590.00 L 602.20 590.30 L 605.60 591.00 L 608.80 592.10 L 611.80 593.60 L 614.60 595.50 L 617.10 597.70 L 619.30 600.20 L 621.10 603.00 L 622.70 606.00 L 623.80 609.20 L 624.50 612.60 L 624.70 616.10 L 624.50 619.70 L 623.80 623.10 L 622.70 626.30 L 621.10 629.30 L 619.30 632.10 L 617.10 634.60 L 614.60 636.80 L 611.80 638.70 L 608.80 640.20 L 605.60 641.30 L 602.20 642.00 L 598.60 642.20 L 493.90 642.20 L 490.30 642.00 L 487.00 641.30 L 483.80 640.20 L 480.70 638.70 L 478.00 636.80 L 475.50 634.60 L 473.30 632.10 L 471.40 629.30 L 469.90 626.30 L 468.80 623.10 L 468.10 619.70 L 467.80 616.10 L 468.10 612.60 L 468.80 609.20 L 469.90 606.00 L 471.40 603.00 L 473.30 600.20 L 475.50 597.70 L 478.00 595.50 L 480.70 593.60 L 483.80 592.10 L 487.00 591.00 L 490.30 590.30 L 493.90 590.00 Z" fill="url(#linearGradient-21)" fill-opacity="0.8" fill-rule="nonzero" group-id="1,2,4,15" id="path-28" node-id="114" stroke="none" target-height="52.200012" target-width="156.90002" target-x="467.8" target-y="590"/></g><path d="M 492.10 588.40 L 600.40 588.40 L 603.80 588.60 L 606.90 589.20 L 609.90 590.30 L 612.70 591.70 L 615.30 593.40 L 617.60 595.50 L 619.70 597.80 L 621.40 600.40 L 622.80 603.20 L 623.90 606.20 L 624.50 609.30 L 624.70 612.70 L 624.50 616.00 L 623.90 619.20 L 622.80 622.20 L 621.40 625.00 L 617.60 629.90 L 612.70 633.70 L 609.90 635.10 L 606.90 636.10 L 603.80 636.70 L 600.40 637.00 L 492.10 637.00 L 488.80 636.70 L 485.60 636.10 L 482.60 635.10 L 479.80 633.70 L 477.20 631.90 L 474.90 629.90 L 471.10 625.00 L 469.70 622.20 L 468.70 619.20 L 468.10 616.00 L 467.80 612.70 L 468.10 609.30 L 468.70 606.20 L 469.70 603.20 L 471.10 600.40 L 472.90 597.80 L 474.90 595.50 L 477.20 593.40 L 482.60 590.30 L 485.60 589.20 L 488.80 588.60 L 492.10 588.40 Z" fill="url(#linearGradient-22)" fill-opacity="0.8" fill-rule="nonzero" group-id="1,2,4,16" id="path-31" node-id="116" stroke="none" target-height="48.599976" target-width="156.90002" target-x="467.8" target-y="588.4"/></g><path d="M 558.90 612.30 L 558.70 614.80 L 558.00 617.10 L 557.00 619.30 L 555.60 621.20 L 554.00 622.80 L 552.10 624.20 L 549.90 625.20 L 547.60 625.90 L 545.10 626.10 L 542.60 625.90 L 540.30 625.20 L 538.10 624.20 L 536.20 622.80 L 533.20 619.30 L 532.20 617.10 L 531.50 614.80 L 531.30 612.30 L 531.50 609.80 L 532.20 607.50 L 533.20 605.30 L 534.60 603.40 L 536.20 601.80 L 538.10 600.40 L 540.30 599.40 L 542.60 598.70 L 545.10 598.50 L 547.60 598.70 L 549.90 599.40 L 552.10 600.40 L 555.60 603.40 L 557.00 605.30 L 558.00 607.50 L 558.70 609.80 L 558.90 612.30 Z" fill="url(#linearGradient-23)" fill-opacity="0.8" fill-rule="nonzero" group-id="1,2" id="椭圆形_10_" node-id="117" stroke="none" target-height="27.599976" target-width="27.600037" target-x="531.3" target-y="598.5"/><path d="M 558.90 615.00 L 558.70 617.50 L 558.00 619.80 L 557.00 622.00 L 555.60 623.90 L 552.10 626.90 L 549.90 627.90 L 547.60 628.60 L 545.10 628.80 L 542.60 628.60 L 540.30 627.90 L 536.20 625.50 L 533.20 622.00 L 532.20 619.80 L 531.50 617.50 L 531.30 615.00 L 531.50 612.50 L 532.20 610.20 L 533.20 608.00 L 534.60 606.10 L 536.20 604.50 L 538.10 603.10 L 540.30 602.10 L 542.60 601.40 L 545.10 601.20 L 547.60 601.40 L 549.90 602.10 L 552.10 603.10 L 554.00 604.50 L 555.60 606.10 L 557.00 608.00 L 558.00 610.20 L 558.70 612.50 L 558.90 615.00 Z" fill="url(#linearGradient-24)" fill-opacity="0.8" fill-rule="nonzero" group-id="1,2" id="椭圆形备份-17" node-id="118" stroke="none" target-height="27.599976" target-width="27.600037" target-x="531.3" target-y="601.2"/></g></g></svg>